<svg width="111" height="72" viewBox="0 0 111 72" fill="none" xmlns="http://www.w3.org/2000/svg">
<path d="M33.1 71.9C29.5 71.9 27.1 70.2667 25.9 67L0.5 1.6C1.23333 1.2 2.2 0.866666 3.4 0.599999C4.66667 0.266666 5.83333 0.0999997 6.9 0.0999997C12.6333 0.0999997 16.3 2.4 17.9 7L32.3 47.4L29.8 54.2L31 54.7L48.2 7C49.9333 2.4 53.6 0.0999997 59.2 0.0999997C60.2667 0.0999997 61.4 0.266666 62.6 0.599999C63.8667 0.866666 64.8667 1.2 65.6 1.6L40.3 67C39.1 70.2667 36.7 71.9 33.1 71.9Z" fill="#31E1F7"/>
<path d="M71.6 12.7H47.5C47.5 4.23333 51.3333 0 59 0H110.3C110.3 8.46667 106.467 12.7 98.8 12.7H86.3V60.3C86.3 63.7667 85.0333 66.4 82.5 68.2C80.0333 70 76.4 70.9 71.6 70.9V12.7Z" fill="white"/>
</svg>
